# Blender v3.4.1 OBJ File: ''
# www.blender.org
mtllib stepsobj.mtl
o steps
v 1.000000 1.000000 -0.500000
v 1.000000 1.000000 0.500000
v 1.000000 0.000000 -0.500000
v 1.000000 0.000000 0.500000
v 0.000000 0.000000 0.500000
v 0.000000 0.000000 -0.500000
v 0.100000 0.000000 -0.500000
v 0.100000 0.100000 -0.500000
v 0.200000 0.100000 -0.500000
v 0.200000 0.200000 -0.500000
v 0.300000 0.200000 -0.500000
v 0.300000 0.300000 -0.500000
v 0.400000 0.300000 -0.500000
v 0.400000 0.400000 -0.500000
v 0.500000 0.400000 -0.500000
v 0.500000 0.500000 -0.500000
v 0.600000 0.500000 -0.500000
v 0.600000 0.600000 -0.500000
v 0.700000 0.600000 -0.500000
v 0.700000 0.700000 -0.500000
v 0.800000 0.700000 -0.500000
v 0.800000 0.800000 -0.500000
v 0.900000 0.800000 -0.500000
v 0.900000 0.900000 -0.500000
v 1.000000 0.900000 -0.500000
v 1.000000 0.900000 0.500000
v 0.900000 0.900000 0.500000
v 0.900000 0.800000 0.500000
v 0.800000 0.800000 0.500000
v 0.800000 0.700000 0.500000
v 0.700000 0.700000 0.500000
v 0.700000 0.600000 0.500000
v 0.600000 0.600000 0.500000
v 0.600000 0.500000 0.500000
v 0.500000 0.500000 0.500000
v 0.500000 0.400000 0.500000
v 0.400000 0.400000 0.500000
v 0.400000 0.300000 0.500000
v 0.300000 0.300000 0.500000
v 0.300000 0.200000 0.500000
v 0.200000 0.200000 0.500000
v 0.200000 0.100000 0.500000
v 0.100000 0.100000 0.500000
v 0.100000 0.000000 0.500000
vn 1.0000 0.0000 0.0000
vn 0.0000 -1.0000 0.0000
vn 0.0000 0.0000 -1.0000
vn 0.0000 0.0000 1.0000
vn -1.0000 0.0000 0.0000
vn 0.0000 1.0000 0.0000
usemtl None
s off
f 3//1 1//1 2//1
f 3//1 2//1 4//1
f 6//2 3//2 4//2
f 6//2 4//2 5//2
f 7//3 8//3 9//3
f 9//3 10//3 11//3
f 11//3 12//3 13//3
f 13//3 14//3 15//3
f 15//3 16//3 17//3
f 17//3 18//3 19//3
f 19//3 20//3 21//3
f 21//3 22//3 23//3
f 23//3 24//3 25//3
f 21//3 23//3 25//3
f 17//4 19//4 21//4
f 11//3 13//3 15//3
f 17//3 21//3 25//3
f 11//3 15//3 17//3
f 7//3 9//3 11//3
f 3//4 6//4 7//4
f 11//4 17//4 25//4
f 3//3 7//3 11//3
f 25//4 1//4 3//4
f 11//3 25//3 3//3
f 2//5 1//5 25//5
f 2//5 25//5 26//5
f 26//6 25//6 24//6
f 26//6 24//6 27//6
f 27//5 24//5 23//5
f 27//5 23//5 28//5
f 28//6 23//6 22//6
f 28//6 22//6 29//6
f 29//5 22//5 21//5
f 29//5 21//5 30//5
f 30//6 21//6 20//6
f 30//6 20//6 31//6
f 31//5 20//5 19//5
f 31//5 19//5 32//5
f 32//6 19//6 18//6
f 32//6 18//6 33//6
f 33//5 18//5 17//5
f 33//5 17//5 34//5
f 34//6 17//6 16//6
f 34//6 16//6 35//6
f 35//5 16//5 15//5
f 35//5 15//5 36//5
f 36//6 15//6 14//6
f 36//6 14//6 37//6
f 37//5 14//5 13//5
f 37//5 13//5 38//5
f 38//6 13//6 12//6
f 38//6 12//6 39//6
f 39//5 12//5 11//5
f 39//5 11//5 40//5
f 40//6 11//6 10//6
f 40//6 10//6 41//6
f 41//5 10//5 9//5
f 41//5 9//5 42//5
f 42//6 9//6 8//6
f 42//6 8//6 43//6
f 43//5 8//5 7//5
f 43//5 7//5 44//5
f 44//6 7//6 6//6
f 44//6 6//6 5//6
f 26//4 27//4 28//4
f 28//4 29//4 30//4
f 30//4 31//4 32//4
f 32//4 33//4 34//4
f 34//4 35//4 36//4
f 36//4 37//4 38//4
f 38//4 39//4 40//4
f 40//4 41//4 42//4
f 42//4 43//4 44//4
f 40//4 42//4 44//4
f 36//4 38//4 40//4
f 30//3 32//3 34//3
f 34//4 36//4 40//4
f 44//4 5//4 4//4
f 30//4 34//4 40//4
f 40//4 44//4 4//4
f 4//4 2//4 26//4
f 30//4 40//4 4//4
f 26//4 28//4 30//4
f 4//4 26//4 30//4
